<?xml version="1.0" encoding="iso-8859-1"?>
<!-- Generator: Adobe Illustrator 19.0.0, SVG Export Plug-In . SVG Version: 6.00 Build 0)  -->
<svg version="1.1" id="Layer_1" xmlns="http://www.w3.org/2000/svg" xmlns:xlink="http://www.w3.org/1999/xlink" x="0px" y="0px"
	 viewBox="0 0 512 512" style="enable-background:new 0 0 512 512;" xml:space="preserve">
<path style="fill:#9CDBD8;" d="M184.192,100h-59.701V30h59.701V100z"/>
<path style="fill:#81D3D1;" d="M184.192,100h-19.9V30h19.9V100z"/>
<path style="fill:#BCEDEA;" d="M221.03,210.852c18.073,3.778,31.653,19.864,31.653,39.148v222c0,22.091-17.82,40-39.801,40H95.801
	C73.82,512,56,494.091,56,472V250c0-19.284,13.581-35.371,31.653-39.148c4.071-0.851,6.987-4.458,6.987-8.638v-3.381
	c0-4.878-3.935-8.833-8.789-8.833l0,0c-10.991,0-19.9-8.954-19.9-20v-50c0-22.091,17.82-40,39.801-40h97.181
	c21.981,0,39.801,17.909,39.801,40v50c0,11.046-8.91,20-19.9,20l0,0c-4.854,0-8.789,3.955-8.789,8.833v3.381
	C214.043,206.393,216.959,210.001,221.03,210.852z"/>
<path style="fill:#DDDDDD;" d="M192.982,10v30c0,5.523-4.477,10-10,10h-57.28c-5.523,0-10-4.477-10-10V10c0-5.523,4.477-10,10-10
	h57.28C188.505,0,192.982,4.477,192.982,10z"/>
<path style="fill:#CECECE;" d="M192.982,10v30c0,5.523-4.455,10-9.95,10h-18.905V0h18.905C188.527,0,192.982,4.477,192.982,10z"/>
<path style="fill:#9CDBD8;" d="M252.683,250v222c0,22.091-17.82,40-39.801,40h-7.629h-7.297h-7.629
	c21.981,0,39.801-17.909,39.801-40V250c0-0.519-0.01-1.035-0.029-1.549c-0.792-20.897-18.463-37.201-39.376-37.201h-52.468
	c-5.496,0-9.95-4.477-9.95-10c0-0.211,0-1.039,0-1.25c0-5.523,4.455-10,9.95-10h62.022c10.991,0,19.901-8.954,19.901-20v-50
	c0-22.091-17.82-40-39.801-40h7.628h7.297h7.629c21.981,0,39.801,17.909,39.801,40v50c0,11.046-8.91,20-19.9,20l0,0
	c-4.854,0-8.79,3.955-8.79,8.833v3.381c0,4.179,2.916,7.787,6.987,8.638C239.103,214.629,252.683,230.716,252.683,250z"/>
<path style="fill:#E4F9F8;" d="M212.882,512H95.801C73.82,512,56,494.091,56,472V250c0-2.741,0.283-5.414,0.806-8h43.219
	c6.179,0,12.273,1.446,17.8,4.223l62.794,31.554c5.527,2.777,11.621,4.223,17.8,4.223h54.265v190
	C252.683,494.091,234.864,512,212.882,512z"/>
<path style="fill:#D5F7F4;" d="M252.683,282v190c0,22.091-17.82,40-39.801,40h-9.667c-34.662-22.441-57.663-61.571-57.663-106
	c0-27.753,8.808-54.079,25.471-76.132c13.03-17.245,30.492-30.937,50.151-39.526V282H252.683z"/>
<path style="fill:#88E5EA;" d="M98.289,389v1c0,4.142-3.341,7.5-7.463,7.5s-7.463-3.358-7.463-7.5v-1c0-4.142,3.341-7.5,7.463-7.5
	S98.289,384.858,98.289,389z M90.826,272.5c-4.121,0-7.463,3.358-7.463,7.5v1c0,4.142,3.341,7.5,7.463,7.5s7.463-3.358,7.463-7.5v-1
	C98.289,275.858,94.947,272.5,90.826,272.5z M120.677,292.5c-4.121,0-7.463,3.358-7.463,7.5v1c0,4.142,3.341,7.5,7.463,7.5
	s7.463-3.358,7.463-7.5v-1C128.139,295.858,124.798,292.5,120.677,292.5z"/>
<path style="fill:#B7CB4E;" d="M384.01,140h-39.453v-40c0-38.66,31.34-70,70-70h39.453v40C454.01,108.66,422.67,140,384.01,140z"/>
<path style="fill:#A4A74E;" d="M454.006,30h0.004v40c0,38.66-31.184,70-69.652,70h-39.801v-0.004L454.006,30z"/>
<path style="fill:#949E4E;" d="M419.486,75.303l-99.502,100c-0.543,0.546-1.149,0.989-1.794,1.331V232c0,4.142-3.341,7.5-7.463,7.5
	c-4.121,0-7.463-3.358-7.463-7.5V93.693l-22.958-17.748c-3.267-2.525-3.878-7.234-1.365-10.518c2.513-3.283,7.2-3.896,10.465-1.372
	l25.871,20c1.837,1.42,2.913,3.616,2.913,5.945v65.894l90.743-91.197c2.914-2.929,7.64-2.929,10.554,0
	C422.4,67.625,422.4,72.375,419.486,75.303z"/>
<path style="fill:#C9E665;" d="M456,406L456,406c0,58.542-47.222,106-105.473,106h-79.602c-58.251,0-105.473-47.458-105.473-106l0,0
	c0-48.122,31.91-88.746,75.622-101.687V270c0-38.66,31.184-70,69.652-70l0,0c38.468,0,69.652,31.34,69.652,70v34.313
	C424.09,317.253,456,357.878,456,406z"/>
<path style="fill:#B7CB4E;" d="M456,406L456,406c0,58.542-47.222,106-105.473,106h-26.866c58.251,0,105.473-47.458,105.473-106l0,0
	c0-43.309-25.847-68.389-62.882-82.405c-7.712-2.919-12.739-10.399-12.739-18.644V270c0-34.04-24.181-62.393-56.219-68.686
	c4.348-0.854,8.836-1.314,13.433-1.314l0,0c38.468,0,69.652,31.34,69.652,70v34.313C424.09,317.253,456,357.878,456,406z"/>
<path style="fill:#DBFA8E;" d="M279.881,470c0,5.523-4.455,10-9.95,10c-41.149,0-74.627-33.645-74.627-75c0-5.523,4.455-10,9.95-10
	s9.95,4.477,9.95,10c0,30.327,24.55,55,54.726,55C275.426,460,279.881,464.477,279.881,470z"/>
<g>
</g>
<g>
</g>
<g>
</g>
<g>
</g>
<g>
</g>
<g>
</g>
<g>
</g>
<g>
</g>
<g>
</g>
<g>
</g>
<g>
</g>
<g>
</g>
<g>
</g>
<g>
</g>
<g>
</g>
</svg>
